<svg width="37" height="36" viewBox="0 0 37 36" fill="none" xmlns="http://www.w3.org/2000/svg">
<path d="M20.6768 31.4714L20.0517 31.323L12.863 25.4573L2.54127 20.3508C1.68636 19.9267 1.14865 17.5884 1.64227 16.4392C1.97558 15.6623 2.51922 15.245 3.03658 15.0822L2.03069 14.4435C1.24278 13.9872 0.485413 12.1163 1.08504 10.7491C1.43616 9.94933 1.9832 9.387 2.62438 9.16564C2.84224 9.08656 3.07425 9.05393 3.30547 9.06985C3.53669 9.08578 3.76201 9.1499 3.96698 9.2581L4.99237 9.77122L2.94328 8.14197C2.53675 7.82175 2.27261 7.35438 2.20796 6.84093C2.10703 6.02927 2.27157 4.84782 3.03488 3.96831C3.46913 3.46876 4.28249 2.86576 5.69038 2.84455L5.71073 2.84455C6.60466 2.84455 8.29497 3.86231 8.6902 4.17442L9.05405 4.46278C8.76818 3.93267 8.69052 3.31495 8.83626 2.73058C8.982 2.1462 9.34064 1.63729 9.84196 1.3035L10.6952 0.73526C11.1175 0.453924 11.6178 0.312748 12.1249 0.331778C12.632 0.350808 13.1202 0.529077 13.5203 0.841276L13.9444 1.17289C14.0445 1.24985 14.1381 1.33495 14.2242 1.42732L22.1966 9.94676L22.3807 4.58405C22.391 4.25333 22.5066 3.93452 22.7106 3.67401L23.0329 3.26099C23.4678 2.6975 24.0739 2.29051 24.7601 2.1013C25.4463 1.91209 26.1754 1.95088 26.8376 2.21184C27.4615 2.45495 28.002 2.87302 28.3941 3.41585C28.7861 3.95868 29.0131 4.60318 29.0478 5.27189L29.7526 19.1948L31.5227 20.8393L31.5761 21.863L23.9327 30.6046L23.5384 30.8387L20.6768 31.4714ZM3.29017 19.0786L13.589 24.175L13.7281 24.264L20.7039 29.9567L22.9811 29.4478L29.9952 21.4262L28.5296 20.0632L28.2955 19.5611L27.5755 5.33975C27.5556 4.9548 27.4249 4.5838 27.1992 4.27131C26.9735 3.95882 26.6624 3.71814 26.3033 3.57819C25.9358 3.43333 25.5312 3.41182 25.1505 3.51692C24.7697 3.62201 24.4334 3.848 24.1923 4.16084L23.8708 4.57304C23.8587 4.58896 23.8516 4.60816 23.8505 4.62816L23.6045 11.7652L22.3323 12.2427L13.148 2.42727C13.1142 2.39108 13.0776 2.35762 13.0385 2.3272L12.6145 1.99558C12.4582 1.87401 12.2676 1.80467 12.0698 1.79737C11.8719 1.79006 11.6767 1.84516 11.5119 1.95487L10.6587 2.52226C10.5488 2.59517 10.4554 2.69034 10.3845 2.8016C10.3137 2.91286 10.2669 3.03774 10.2474 3.16818C10.2278 3.29862 10.2358 3.43173 10.2708 3.55889C10.3059 3.68605 10.3672 3.80443 10.4509 3.9064L10.4823 3.94796L13.1717 7.75267L12.1132 8.75516L7.77676 5.32194C7.34252 4.97845 6.05507 4.32622 5.71158 4.31011C5.0212 4.32198 4.49367 4.52978 4.14764 4.9284C3.72951 5.40929 3.60652 6.14208 3.67013 6.65435C3.68662 6.78273 3.75305 6.89943 3.85502 6.97917L11.4373 13.0085L10.6502 14.2434L3.28932 10.5617C3.26106 10.5465 3.2297 10.538 3.19766 10.5369C3.16561 10.5357 3.13373 10.5418 3.10444 10.5549C3.01369 10.5854 2.69817 10.7347 2.43355 11.3377C2.14434 11.9967 2.56926 12.978 2.78299 13.1747L2.8025 13.1858L9.46624 17.4145L8.7818 18.7122L3.54886 16.4672C3.46404 16.4833 3.18755 16.5707 2.99503 17.0202C2.77197 17.5392 3.08238 18.7419 3.29187 19.0786L3.29017 19.0786ZM2.74653 13.1552L2.77113 13.1697C2.76385 13.1643 2.75619 13.1595 2.74823 13.1552L2.74653 13.1552Z" fill="#1F2935"/>
<path d="M27.6672 35.4443L22.6182 31.1053L22.5411 30.0655L30.4643 20.8963L31.4744 20.7963L36.2986 24.556L36.4241 25.5933L28.7256 35.3467L27.6672 35.4443ZM24.1381 30.4692L28.0454 33.8277L34.8093 25.2616L31.1216 22.3874L24.1381 30.4692Z" fill="#1F2935"/>
<path d="M19.4691 8.53695L12.5869 24.5404L13.9394 25.1221L20.8217 9.11863L19.4691 8.53695Z" fill="#1F2935"/>
<path d="M28.3136 15.9029L15.7379 26.288L16.6754 27.4232L29.2511 17.0381L28.3136 15.9029Z" fill="#1F2935"/>
<path d="M23.6188 11.7134L22.1467 11.7429L22.3369 21.2154L23.8089 21.1859L23.6188 11.7134Z" fill="#1F2935"/>
<path d="M30.4583 25.8174L26.6932 30.2587L27.8163 31.2108L31.5814 26.7696L30.4583 25.8174Z" fill="#1F2935"/>
<path d="M22.8719 11.7404L23.061 21.2148L16.209 26.8337L13.2634 24.8338L20.146 8.83044L22.8719 11.7404Z" fill="#1F2935"/>
<path d="M15.7951 27.4441L12.8538 25.4442L12.5909 24.5435L19.4692 8.5393L20.6837 8.32727L23.4088 11.2381L23.6072 11.7266L23.7964 21.201L23.5275 21.7845L16.6755 27.4042L15.7951 27.4441ZM14.1837 24.5672L16.1708 25.9166L22.3206 20.8728L22.1442 12.0387L20.3809 10.155L14.1837 24.5672Z" fill="#1F2935"/>
</svg>
