<svg width="109" height="24" viewBox="0 0 109 24" fill="none" xmlns="http://www.w3.org/2000/svg">
<path d="M35.3415 15.1186C35.3415 15.5774 35.2819 15.9916 35.1627 16.361C35.0495 16.7245 34.8976 17.0463 34.7069 17.3264C34.5162 17.6065 34.2927 17.8448 34.0365 18.0415C33.7802 18.2381 33.5151 18.399 33.241 18.5241C32.9668 18.6493 32.6868 18.7416 32.4007 18.8012C32.1207 18.8608 31.8555 18.8906 31.6052 18.8906H22.6398V16.5666H31.6052C32.0521 16.5666 32.3977 16.4355 32.6421 16.1733C32.8923 15.9111 33.0175 15.5595 33.0175 15.1186C33.0175 14.904 32.9847 14.7074 32.9192 14.5286C32.8536 14.3498 32.7583 14.1949 32.6331 14.0638C32.5139 13.9327 32.365 13.8314 32.1862 13.7599C32.0134 13.6884 31.8197 13.6526 31.6052 13.6526H26.2599C25.8845 13.6526 25.4793 13.5871 25.0443 13.456C24.6093 13.3189 24.2041 13.1014 23.8287 12.8035C23.4592 12.5055 23.1493 12.1152 22.8991 11.6325C22.6547 11.1498 22.5326 10.5599 22.5326 9.86269C22.5326 9.16548 22.6547 8.57852 22.8991 8.1018C23.1493 7.61912 23.4592 7.2288 23.8287 6.93085C24.2041 6.62694 24.6093 6.40943 25.0443 6.27833C25.4793 6.14128 25.8845 6.07275 26.2599 6.07275H34.1706V8.39677H26.2599C25.819 8.39677 25.4734 8.53085 25.2231 8.799C24.9788 9.06716 24.8566 9.42172 24.8566 9.86269C24.8566 10.3096 24.9788 10.6642 25.2231 10.9264C25.4734 11.1826 25.819 11.3107 26.2599 11.3107H31.6052H31.6231C31.8734 11.3167 32.1385 11.3524 32.4186 11.418C32.6987 11.4776 32.9758 11.5729 33.2499 11.704C33.53 11.8351 33.7951 12.002 34.0454 12.2046C34.2957 12.4012 34.5162 12.6396 34.7069 12.9197C34.9035 13.1997 35.0585 13.5215 35.1717 13.885C35.2849 14.2485 35.3415 14.6597 35.3415 15.1186ZM45.328 21.9119H43.004V12.4817C43.004 12.1778 42.9265 11.9484 42.7716 11.7934C42.6167 11.6325 42.3813 11.5521 42.0654 11.5521H37.8733C37.5872 11.5521 37.3608 11.6415 37.1939 11.8202C37.0271 11.993 36.9437 12.2135 36.9437 12.4817V15.6281C36.9437 15.932 37.0241 16.1644 37.185 16.3253C37.3459 16.4862 37.5813 16.5666 37.8911 16.5666H42.0654V18.8906H37.8733C37.5515 18.8906 37.1999 18.834 36.8185 18.7208C36.4371 18.6076 36.0826 18.4228 35.7548 18.1666C35.433 17.9044 35.1619 17.5677 34.9414 17.1565C34.7269 16.7394 34.6196 16.2299 34.6196 15.6281V12.4817C34.6196 12.2612 34.6435 12.0288 34.6911 11.7845C34.7448 11.5402 34.8252 11.2988 34.9325 11.0605C35.0397 10.8161 35.1768 10.5837 35.3437 10.3633C35.5165 10.1428 35.7221 9.9491 35.9604 9.78224C36.2047 9.61539 36.4848 9.48131 36.8006 9.38001C37.1165 9.27871 37.474 9.22805 37.8733 9.22805H42.0654C42.2859 9.22805 42.5183 9.25487 42.7626 9.3085C43.0129 9.35617 43.2572 9.43364 43.4956 9.5409C43.7399 9.64817 43.9723 9.7882 44.1928 9.96102C44.4133 10.1279 44.607 10.3335 44.7738 10.5778C44.9407 10.8161 45.0748 11.0932 45.1761 11.4091C45.2774 11.7249 45.328 12.0824 45.328 12.4817V21.9119ZM55.824 17.7197C55.824 17.8865 55.7942 18.0415 55.7346 18.1845C55.675 18.3275 55.5916 18.4526 55.4843 18.5599C55.383 18.6612 55.2609 18.7416 55.1179 18.8012C54.9808 18.8608 54.8318 18.8906 54.6709 18.8906H49.4151C49.129 18.8906 48.8222 18.8579 48.4944 18.7923C48.1726 18.7268 47.8538 18.6225 47.538 18.4795C47.2222 18.3305 46.9153 18.1457 46.6173 17.9253C46.3253 17.6988 46.0691 17.4277 45.8486 17.1119C45.6281 16.7901 45.4493 16.4206 45.3123 16.0035C45.1812 15.5863 45.1156 15.1156 45.1156 14.5912V9.22805H47.4397V14.5912C47.4397 14.8951 47.4903 15.1692 47.5916 15.4135C47.6989 15.6519 47.8419 15.8575 48.0207 16.0303C48.1994 16.2031 48.408 16.3372 48.6464 16.4325C48.8907 16.5219 49.1529 16.5666 49.433 16.5666H53.5V9.22805H55.824V17.7197ZM65.7837 15.6906C65.7837 16.0124 65.7271 16.361 65.6139 16.7364C65.5006 17.1059 65.3159 17.4515 65.0597 17.7733C64.8094 18.0891 64.4787 18.3543 64.0675 18.5688C63.6623 18.7834 63.1677 18.8906 62.5837 18.8906H58.3915C58.0697 18.8906 57.7211 18.834 57.3457 18.7208C56.9763 18.6076 56.6306 18.4258 56.3088 18.1755C55.993 17.9193 55.7278 17.5886 55.5133 17.1834C55.2988 16.7722 55.1915 16.2746 55.1915 15.6906C55.1915 15.3688 55.2481 15.0202 55.3614 14.6448C55.4746 14.2694 55.6563 13.9238 55.9066 13.6079C56.1628 13.2862 56.4936 13.018 56.8988 12.8035C57.31 12.5889 57.8075 12.4817 58.3915 12.4817H62.5837V14.6984H58.3915C58.0757 14.6984 57.8314 14.7968 57.6586 14.9934C57.4857 15.1841 57.3993 15.4225 57.3993 15.7085C57.3993 16.0124 57.4977 16.2508 57.6943 16.4236C57.8969 16.5904 58.1353 16.6739 58.4094 16.6739H62.5837C62.8995 16.6739 63.1438 16.5785 63.3167 16.3878C63.4895 16.1971 63.5759 15.9588 63.5759 15.6727V12.4281C63.5759 12.1241 63.4805 11.8828 63.2898 11.704C63.1051 11.5253 62.8697 11.4359 62.5837 11.4359H57.4798V9.22805H62.5837C62.9055 9.22805 63.2511 9.28467 63.6206 9.39789C63.996 9.51111 64.3416 9.69584 64.6574 9.95208C64.9792 10.2024 65.2474 10.5331 65.4619 10.9443C65.6764 11.3495 65.7837 11.8441 65.7837 12.4281V15.6906ZM76.1724 15.6281C76.1724 16.0273 76.1218 16.3878 76.0205 16.7096C75.9192 17.0254 75.7851 17.3055 75.6183 17.5498C75.4514 17.7882 75.2577 17.9938 75.0372 18.1666C74.8168 18.3335 74.5844 18.4705 74.34 18.5778C74.1017 18.685 73.8574 18.7655 73.6071 18.8191C73.3628 18.8668 73.1304 18.8906 72.9099 18.8906H68.7177C68.3184 18.8906 67.9609 18.84 67.6451 18.7387C67.3292 18.6374 67.0492 18.5033 66.8048 18.3364C66.5665 18.1636 66.3609 17.967 66.1881 17.7465C66.0212 17.526 65.8842 17.2966 65.7769 17.0582C65.6696 16.8139 65.5892 16.5696 65.5356 16.3253C65.4879 16.075 65.4641 15.8426 65.4641 15.6281V12.4817C65.4641 11.8858 65.5713 11.3822 65.7858 10.9711C66.0063 10.5539 66.2775 10.2173 66.5993 9.96102C66.927 9.69882 67.2816 9.51111 67.6629 9.39789C68.0443 9.28467 68.3959 9.22805 68.7177 9.22805H72.9099V11.5521H68.7356C68.4257 11.5521 68.1903 11.6325 68.0294 11.7934C67.8685 11.9484 67.7881 12.1778 67.7881 12.4817V15.6102C67.7881 15.926 67.8655 16.1644 68.0205 16.3253C68.1814 16.4862 68.4138 16.5666 68.7177 16.5666H72.9099C73.2257 16.5666 73.4611 16.4862 73.616 16.3253C73.771 16.1644 73.8484 15.932 73.8484 15.6281V5.14314H76.1724V15.6281ZM85.5332 15.6281C85.5332 16.0273 85.4826 16.3878 85.3813 16.7096C85.28 17.0254 85.1459 17.3055 84.9791 17.5498C84.8122 17.7882 84.6185 17.9938 84.398 18.1666C84.1776 18.3335 83.9452 18.4705 83.7008 18.5778C83.4625 18.685 83.2182 18.7655 82.9679 18.8191C82.7236 18.8668 82.4912 18.8906 82.2707 18.8906H75.9779V16.5666H82.2528C82.5686 16.5666 82.807 16.4862 82.9679 16.3253C83.1288 16.1644 83.2092 15.932 83.2092 15.6281C83.1794 15.0083 82.8666 14.6984 82.2707 14.6984H78.6684C78.156 14.6984 77.721 14.6091 77.3634 14.4303C77.0059 14.2515 76.7139 14.0281 76.4874 13.7599C76.267 13.4917 76.1061 13.2027 76.0048 12.8929C75.9094 12.583 75.8617 12.294 75.8617 12.0258C75.8617 11.5074 75.9541 11.0724 76.1388 10.7208C76.3236 10.3633 76.556 10.0742 76.836 9.85375C77.1161 9.63327 77.42 9.47535 77.7478 9.38001C78.0755 9.27871 78.3824 9.22805 78.6684 9.22805H84.3802V11.5521H78.6863C78.5671 11.5521 78.4718 11.567 78.4003 11.5968C78.3347 11.6206 78.2841 11.6564 78.2483 11.704C78.2185 11.7457 78.2007 11.7934 78.1947 11.847C78.1887 11.8947 78.1858 11.9424 78.1858 11.9901C78.1917 12.0854 78.2096 12.1599 78.2394 12.2135C78.2692 12.2672 78.3049 12.3059 78.3467 12.3297C78.3943 12.3536 78.445 12.3685 78.4986 12.3744C78.5582 12.3744 78.6148 12.3744 78.6684 12.3744H82.2707C82.8666 12.3744 83.3731 12.4817 83.7902 12.6962C84.2074 12.9107 84.544 13.1819 84.8003 13.5096C85.0565 13.8314 85.2413 14.183 85.3545 14.5644C85.4737 14.9457 85.5332 15.3003 85.5332 15.6281Z" fill="url(#paint0_linear_38_7518)"/>
<rect x="87.3588" y="7.8457" width="21.6374" height="10.0459" rx="5.02296" fill="white"/>
<path d="M92.3779 10.8213H94.0765C94.3397 10.8213 94.5669 10.8682 94.758 10.9619C94.9492 11.0521 95.0952 11.1819 95.1962 11.3514C95.3008 11.5209 95.3531 11.7228 95.3531 11.9573C95.3531 12.152 95.3008 12.3287 95.1962 12.4874C95.0952 12.6424 94.9402 12.7705 94.731 12.8714V12.5306C95.0123 12.6388 95.2124 12.7849 95.3314 12.9688C95.454 13.1527 95.5153 13.3691 95.5153 13.6179C95.5153 14.0038 95.3873 14.3067 95.1313 14.5267C94.8789 14.7431 94.5272 14.8513 94.0765 14.8513H92.3779V10.8213ZM94.1522 14.2021C94.3397 14.2021 94.4912 14.1498 94.6066 14.0453C94.722 13.9371 94.7797 13.7946 94.7797 13.6179C94.7797 13.4412 94.722 13.2988 94.6066 13.1906C94.4948 13.0824 94.3433 13.0283 94.1522 13.0283H93.1136V14.2021H94.1522ZM94.1143 12.3846C94.2658 12.3846 94.3866 12.3413 94.4768 12.2548C94.5669 12.1646 94.612 12.0492 94.612 11.9086C94.612 11.7679 94.5669 11.6561 94.4768 11.5732C94.3866 11.4902 94.2658 11.4488 94.1143 11.4488H93.1136V12.3846H94.1143Z" fill="#232D39"/>
<path d="M97.4488 14.9162C97.1531 14.9162 96.8898 14.8494 96.659 14.716C96.4282 14.579 96.2497 14.3933 96.1235 14.1589C95.9973 13.9208 95.9342 13.6594 95.9342 13.3745C95.9342 13.086 95.9973 12.8264 96.1235 12.5956C96.2497 12.3611 96.4246 12.1772 96.6482 12.0438C96.8718 11.9104 97.1206 11.8437 97.3947 11.8437C97.6904 11.8437 97.9447 11.9086 98.1574 12.0384C98.3738 12.1646 98.5397 12.3377 98.6551 12.5577C98.7705 12.7777 98.8282 13.0193 98.8282 13.2825C98.8282 13.4052 98.8156 13.5043 98.7903 13.5801H96.5184V13.0391H98.39L98.0547 13.2934C98.0871 13.1311 98.0781 12.985 98.0276 12.8552C97.9807 12.7218 97.9014 12.6172 97.7896 12.5415C97.6778 12.4657 97.5462 12.4279 97.3947 12.4279C97.2469 12.4279 97.1134 12.4657 96.9944 12.5415C96.879 12.6172 96.7925 12.7272 96.7348 12.8714C96.6771 13.0157 96.6554 13.1852 96.6699 13.3799C96.6554 13.5602 96.6789 13.7189 96.7402 13.8559C96.8051 13.993 96.8989 14.1012 97.0215 14.1805C97.1477 14.2562 97.2919 14.2941 97.4542 14.2941C97.6093 14.2941 97.7445 14.2616 97.8599 14.1967C97.9753 14.1282 98.0673 14.0344 98.1358 13.9154L98.7092 14.1967C98.619 14.4095 98.4604 14.5826 98.2332 14.716C98.006 14.8494 97.7445 14.9162 97.4488 14.9162Z" fill="#232D39"/>
<path d="M100.707 14.8837C100.375 14.8837 100.117 14.7936 99.9333 14.6132C99.753 14.4293 99.6629 14.1715 99.6629 13.8397V12.5415H99.1544V11.9086H99.2085C99.3527 11.9086 99.4645 11.8707 99.5439 11.795C99.6232 11.7192 99.6629 11.6093 99.6629 11.465V11.1458H100.372V11.9086H101.048V12.5415H100.372V13.8018C100.372 13.9533 100.411 14.0687 100.491 14.148C100.57 14.2238 100.696 14.2616 100.869 14.2616C100.927 14.2616 100.99 14.2562 101.058 14.2454V14.8567C100.954 14.8747 100.837 14.8837 100.707 14.8837Z" fill="#232D39"/>
<path d="M102.387 14.9162C102.181 14.9162 102.003 14.8819 101.851 14.8134C101.7 14.7449 101.583 14.6475 101.5 14.5213C101.417 14.3915 101.375 14.2418 101.375 14.0723C101.375 13.8235 101.46 13.6197 101.629 13.461C101.799 13.2988 102.053 13.1888 102.392 13.1311L103.355 12.9742V13.5151L102.527 13.6558C102.387 13.681 102.282 13.7261 102.214 13.791C102.145 13.8559 102.111 13.9407 102.111 14.0453C102.111 14.1462 102.149 14.2274 102.225 14.2887C102.3 14.3464 102.398 14.3752 102.517 14.3752C102.661 14.3752 102.791 14.3446 102.906 14.2833C103.021 14.2184 103.11 14.13 103.171 14.0182C103.236 13.9064 103.269 13.7838 103.269 13.6504V12.8931C103.269 12.7669 103.218 12.6623 103.117 12.5793C103.02 12.4928 102.89 12.4495 102.728 12.4495C102.576 12.4495 102.443 12.4892 102.327 12.5685C102.212 12.6478 102.125 12.756 102.068 12.8931L101.489 12.6118C101.575 12.381 101.734 12.1953 101.965 12.0546C102.196 11.914 102.459 11.8437 102.755 11.8437C102.993 11.8437 103.204 11.8887 103.388 11.9789C103.575 12.0654 103.719 12.1881 103.82 12.3467C103.925 12.5054 103.977 12.6875 103.977 12.8931V14.8513H103.306V14.3482L103.458 14.3374C103.342 14.5285 103.195 14.6727 103.014 14.7701C102.838 14.8675 102.628 14.9162 102.387 14.9162Z" fill="#232D39"/>
<path d="M9.51282 2.61662C9.82809 2.35974 10.2933 2.37851 10.587 2.67229L19.7658 11.851L19.8204 11.9125C20.0603 12.2067 20.0603 12.631 19.8204 12.9252L19.7658 12.9867L10.587 22.1655L10.5255 22.2201C10.2314 22.46 9.80707 22.4608 9.51282 22.2211L9.4513 22.1655L0.27259 12.9867C-0.0213112 12.6928 -0.0402935 12.2268 0.216926 11.9115L0.27259 11.851L9.4513 2.67229L9.51282 2.61662ZM3.11048 12.4184L4.11536 13.4233C4.1302 13.4227 4.14531 13.4213 4.16028 13.4213H9.8888L10.0118 13.4272C10.619 13.4888 11.0929 14.002 11.0929 14.6254C11.0927 15.2487 10.6189 15.7621 10.0118 15.8237L9.8888 15.8295H6.52161L10.0197 19.3276L16.9279 12.4184L15.9025 11.393L15.8683 11.3949H10.1398C9.475 11.3949 8.9359 10.8556 8.93568 10.1908C8.93568 9.52592 9.47486 8.98679 10.1398 8.98674H13.4962L10.0197 5.51018L3.11048 12.4184Z" fill="url(#paint1_linear_38_7518)"/>
<defs>
<linearGradient id="paint0_linear_38_7518" x1="21.6745" y1="12.3906" x2="86.6745" y2="12.3906" gradientUnits="userSpaceOnUse">
<stop stop-color="#D0F091"/>
<stop offset="0.5" stop-color="#88C80C"/>
<stop offset="1" stop-color="#218208"/>
</linearGradient>
<linearGradient id="paint1_linear_38_7518" x1="10.0187" y1="2.43701" x2="10.0187" y2="22.4004" gradientUnits="userSpaceOnUse">
<stop stop-color="#D0F091"/>
<stop offset="1" stop-color="#268609"/>
</linearGradient>
</defs>
</svg>
