<svg width="650" height="85" viewBox="0 0 650 85" fill="none" xmlns="http://www.w3.org/2000/svg">
<path d="M8.63867 52L1.88667 11.104H13.5987L16.9267 39.008L17.3107 42.336H17.8867L18.3667 39.008L22.1747 11.968H35.6787L39.4547 39.008L39.9347 42.336H40.5107L40.9267 39.04L44.3187 11.104H55.9347L49.2467 52H33.1507L29.8227 26.496L29.1827 21.504H28.6707L27.9987 26.496L24.7347 52H8.63867ZM74.9607 53.056C68.7527 53.056 64.1127 51.552 61.0407 48.544C57.9687 45.5147 56.4327 41.1413 56.4327 35.424V28.192C56.4327 22.4533 57.9793 18.016 61.0727 14.88C64.166 11.744 68.7953 10.176 74.9607 10.176C81.126 10.176 85.7553 11.744 88.8487 14.88C91.942 18.016 93.4887 22.4533 93.4887 28.192V35.424C93.4887 41.1413 91.9527 45.5147 88.8807 48.544C85.8087 51.552 81.1687 53.056 74.9607 53.056ZM74.9607 43.52C77.2433 43.52 78.9287 42.8693 80.0167 41.568C81.126 40.2453 81.6807 38.3893 81.6807 36V27.584C81.6807 25.024 81.126 23.0613 80.0167 21.696C78.9287 20.3307 77.2433 19.648 74.9607 19.648C72.678 19.648 70.982 20.3307 69.8727 21.696C68.7847 23.0613 68.2407 25.024 68.2407 27.584V36C68.2407 38.3893 68.7847 40.2453 69.8727 41.568C70.982 42.8693 72.678 43.52 74.9607 43.52ZM119.822 52L119.182 44.544C119.076 43.2427 118.83 42.208 118.446 41.44C118.062 40.672 117.497 40.1173 116.75 39.776C116.004 39.4347 115.022 39.264 113.806 39.264L105.166 39.232V30.464L114.062 30.432C115.918 30.432 117.262 30.048 118.094 29.28C118.926 28.4907 119.342 27.2747 119.342 25.632V25.088C119.342 23.4453 118.937 22.24 118.126 21.472C117.316 20.6827 115.961 20.288 114.062 20.288H105.134V11.104H115.758C120.985 11.104 124.804 12.0747 127.214 14.016C129.625 15.9573 130.83 18.7947 130.83 22.528V23.264C130.83 26.1013 130.073 28.2667 128.558 29.76C127.065 31.232 124.857 32.0213 121.934 32.128V33.792L120.142 32.256C122.681 32.4267 124.644 32.9387 126.03 33.792C127.438 34.624 128.473 35.8187 129.134 37.376C129.817 38.912 130.297 40.8427 130.574 43.168L131.662 52H119.822ZM97.1022 52V11.104H108.334V33.632L108.398 37.92V52H97.1022ZM142.717 52V42.336H151.325C153.544 42.336 155.197 41.7387 156.285 40.544C157.373 39.3493 157.917 37.6427 157.917 35.424V27.552C157.917 25.3333 157.373 23.6373 156.285 22.464C155.197 21.2693 153.544 20.672 151.325 20.672H142.717V11.104H151.741C157.736 11.104 162.205 12.5227 165.149 15.36C168.115 18.176 169.597 22.24 169.597 27.552V35.456C169.597 40.7893 168.125 44.8853 165.181 47.744C162.237 50.5813 157.757 52 151.741 52H142.717ZM134.557 52V11.104H145.981V52H134.557ZM186.321 52.928C184.444 52.928 182.673 52.8107 181.009 52.576C179.345 52.3413 177.82 52.0427 176.433 51.68C175.047 51.296 173.82 50.9013 172.753 50.496L171.761 40C173.468 40.7253 175.484 41.4187 177.809 42.08C180.135 42.72 182.577 43.04 185.137 43.04C187.42 43.04 189.009 42.8053 189.905 42.336C190.823 41.8667 191.281 41.1093 191.281 40.064V39.936C191.281 39.232 191.057 38.656 190.609 38.208C190.183 37.7387 189.457 37.3013 188.433 36.896C187.409 36.4693 186.033 35.9787 184.305 35.424C181.511 34.528 179.153 33.5573 177.233 32.512C175.313 31.4453 173.863 30.1227 172.881 28.544C171.9 26.944 171.409 24.9067 171.409 22.432V21.952C171.409 18.1333 172.721 15.2213 175.345 13.216C177.991 11.1893 181.841 10.176 186.897 10.176C189.863 10.176 192.423 10.4213 194.577 10.912C196.753 11.4027 198.631 12 200.209 12.704L201.201 22.496C199.495 21.728 197.596 21.0987 195.505 20.608C193.415 20.096 191.217 19.84 188.913 19.84C187.399 19.84 186.215 19.9467 185.361 20.16C184.529 20.352 183.953 20.6507 183.633 21.056C183.313 21.44 183.153 21.92 183.153 22.496V22.592C183.153 23.1893 183.345 23.7227 183.729 24.192C184.135 24.64 184.86 25.0987 185.905 25.568C186.951 26.0373 188.444 26.5813 190.385 27.2C193.159 28.0747 195.484 28.992 197.361 29.952C199.26 30.912 200.689 32.1493 201.649 33.664C202.609 35.1573 203.089 37.184 203.089 39.744V40.192C203.089 44.4373 201.713 47.6267 198.961 49.76C196.209 51.872 191.996 52.928 186.321 52.928ZM238.673 53.056C232.465 53.056 227.825 51.552 224.753 48.544C221.681 45.5147 220.145 41.1413 220.145 35.424V28.192C220.145 22.4533 221.692 18.016 224.785 14.88C227.878 11.744 232.508 10.176 238.673 10.176C244.838 10.176 249.468 11.744 252.561 14.88C255.654 18.016 257.201 22.4533 257.201 28.192V35.424C257.201 41.1413 255.665 45.5147 252.593 48.544C249.521 51.552 244.881 53.056 238.673 53.056ZM238.673 43.52C240.956 43.52 242.641 42.8693 243.729 41.568C244.838 40.2453 245.393 38.3893 245.393 36V27.584C245.393 25.024 244.838 23.0613 243.729 21.696C242.641 20.3307 240.956 19.648 238.673 19.648C236.39 19.648 234.694 20.3307 233.585 21.696C232.497 23.0613 231.953 25.024 231.953 27.584V36C231.953 38.3893 232.497 40.2453 233.585 41.568C234.694 42.8693 236.39 43.52 238.673 43.52ZM276.463 11.072L285.807 39.36H286.255L285.743 22.272V11.072H296.687V52H281.519L271.727 22.88H271.279L271.791 40.224V52H260.815V11.072H276.463ZM325.627 52V13.376H337.243V52H325.627ZM314.651 20.736V11.104H348.187V20.736H314.651ZM362.733 52H351.117V11.104H362.733V52ZM386.989 52H375.373V11.104H386.989V52ZM357.805 26.304H379.693V35.968H357.805V26.304ZM391.697 52V11.104H402.993V52H391.697ZM395.057 52V42.368H421.393V52H395.057ZM398.353 35.872V26.688H420.593V35.872H398.353ZM395.057 20.64V11.104H421.105V20.64H395.057ZM453.479 52.928C451.601 52.928 449.831 52.8107 448.167 52.576C446.503 52.3413 444.977 52.0427 443.591 51.68C442.204 51.296 440.977 50.9013 439.911 50.496L438.919 40C440.625 40.7253 442.641 41.4187 444.967 42.08C447.292 42.72 449.735 43.04 452.295 43.04C454.577 43.04 456.167 42.8053 457.063 42.336C457.98 41.8667 458.439 41.1093 458.439 40.064V39.936C458.439 39.232 458.215 38.656 457.767 38.208C457.34 37.7387 456.615 37.3013 455.591 36.896C454.567 36.4693 453.191 35.9787 451.463 35.424C448.668 34.528 446.311 33.5573 444.391 32.512C442.471 31.4453 441.02 30.1227 440.039 28.544C439.057 26.944 438.567 24.9067 438.567 22.432V21.952C438.567 18.1333 439.879 15.2213 442.503 13.216C445.148 11.1893 448.999 10.176 454.055 10.176C457.02 10.176 459.58 10.4213 461.735 10.912C463.911 11.4027 465.788 12 467.367 12.704L468.359 22.496C466.652 21.728 464.753 21.0987 462.663 20.608C460.572 20.096 458.375 19.84 456.071 19.84C454.556 19.84 453.372 19.9467 452.519 20.16C451.687 20.352 451.111 20.6507 450.791 21.056C450.471 21.44 450.311 21.92 450.311 22.496V22.592C450.311 23.1893 450.503 23.7227 450.887 24.192C451.292 24.64 452.017 25.0987 453.063 25.568C454.108 26.0373 455.601 26.5813 457.543 27.2C460.316 28.0747 462.641 28.992 464.519 29.952C466.417 30.912 467.847 32.1493 468.807 33.664C469.767 35.1573 470.247 37.184 470.247 39.744V40.192C470.247 44.4373 468.871 47.6267 466.119 49.76C463.367 51.872 459.153 52.928 453.479 52.928ZM480.964 52V13.376H492.58V52H480.964ZM469.988 20.736V11.104H503.524V20.736H469.988ZM529.175 52L528.535 44.544C528.428 43.2427 528.183 42.208 527.799 41.44C527.415 40.672 526.849 40.1173 526.103 39.776C525.356 39.4347 524.375 39.264 523.159 39.264L514.519 39.232V30.464L523.415 30.432C525.271 30.432 526.615 30.048 527.447 29.28C528.279 28.4907 528.695 27.2747 528.695 25.632V25.088C528.695 23.4453 528.289 22.24 527.479 21.472C526.668 20.6827 525.313 20.288 523.415 20.288H514.487V11.104H525.111C530.337 11.104 534.156 12.0747 536.567 14.016C538.977 15.9573 540.183 18.7947 540.183 22.528V23.264C540.183 26.1013 539.425 28.2667 537.911 29.76C536.417 31.232 534.209 32.0213 531.287 32.128V33.792L529.495 32.256C532.033 32.4267 533.996 32.9387 535.383 33.792C536.791 34.624 537.825 35.8187 538.487 37.376C539.169 38.912 539.649 40.8427 539.927 43.168L541.015 52H529.175ZM506.455 52V11.104H517.687V33.632L517.751 37.92V52H506.455ZM543.91 52V11.104H555.206V52H543.91ZM547.27 52V42.368H573.606V52H547.27ZM550.566 35.872V26.688H572.806V35.872H550.566ZM547.27 20.64V11.104H573.318V20.64H547.27ZM577.427 52V11.104H588.723V52H577.427ZM580.787 52V42.368H607.123V52H580.787ZM584.083 35.872V26.688H606.323V35.872H584.083ZM580.787 20.64V11.104H606.835V20.64H580.787ZM619.972 52V13.376H631.588V52H619.972ZM608.996 20.736V11.104H642.532V20.736H608.996Z" fill="#D2D4D7"/>
<path d="M402.994 73.0882C411.035 74.2898 418.95 76.3444 427.09 76.3444C431.938 76.3444 436.786 76.3444 441.634 76.3444C445.721 76.3444 450.403 77.0121 454.369 75.9103C459.466 74.4946 464.217 72.3996 469.565 71.9305C478.304 71.1639 484 75.8733 491.345 79.6006C505.548 86.8078 521.034 76.6635 533.531 70.8813C554.878 61.004 578.735 69.7975 600.933 69.1447C609.865 68.882 618.097 65.2734 627.091 65.2734C634.231 65.2734 641.37 65.2734 648.51 65.2734" stroke="#88C80C" stroke-width="3" stroke-linecap="round"/>
</svg>
